<svg width="501" height="227" viewBox="0 0 501 227" fill="none" xmlns="http://www.w3.org/2000/svg">
<path d="M0.691162 226.5L75.175 0.5H431.691L394.449 113.5L357.207 226.5H0.691162Z" fill="#170F49" stroke="#170F49"/>
<path d="M126.291 124.7C126.291 113.5 128.491 103.567 132.891 94.9C137.424 86.2333 143.491 79.5667 151.091 74.9C158.824 70.2333 167.424 67.9 176.891 67.9C185.158 67.9 192.358 69.5667 198.491 72.9C204.758 76.2333 209.758 80.4333 213.491 85.5V69.7H241.691V180.5H213.491V164.3C209.891 169.5 204.891 173.833 198.491 177.3C192.224 180.633 184.958 182.3 176.691 182.3C167.358 182.3 158.824 179.9 151.091 175.1C143.491 170.3 137.424 163.567 132.891 154.9C128.491 146.1 126.291 136.033 126.291 124.7ZM213.491 125.1C213.491 118.3 212.158 112.5 209.491 107.7C206.825 102.767 203.224 99.0333 198.691 96.5C194.158 93.8333 189.291 92.5 184.091 92.5C178.891 92.5 174.091 93.7667 169.691 96.3C165.291 98.8333 161.691 102.567 158.891 107.5C156.224 112.3 154.891 118.033 154.891 124.7C154.891 131.367 156.224 137.233 158.891 142.3C161.691 147.233 165.291 151.033 169.691 153.7C174.224 156.367 179.024 157.7 184.091 157.7C189.291 157.7 194.158 156.433 198.691 153.9C203.224 151.233 206.825 147.5 209.491 142.7C212.158 137.767 213.491 131.9 213.491 125.1Z" fill="#F34822"/>
<path d="M285.238 56.5C280.305 56.5 276.171 54.9667 272.838 51.9C269.638 48.7 268.038 44.7667 268.038 40.1C268.038 35.4333 269.638 31.5667 272.838 28.5C276.171 25.3 280.305 23.7 285.238 23.7C290.171 23.7 294.238 25.3 297.438 28.5C300.771 31.5667 302.438 35.4333 302.438 40.1C302.438 44.7667 300.771 48.7 297.438 51.9C294.238 54.9667 290.171 56.5 285.238 56.5ZM299.038 69.7V180.5H271.038V69.7H299.038Z" fill="#F29F05"/>
<path d="M121.291 124.7C121.291 113.5 123.491 103.567 127.891 94.9C132.424 86.2333 138.491 79.5667 146.091 74.9C153.824 70.2333 162.424 67.9 171.891 67.9C180.158 67.9 187.358 69.5667 193.491 72.9C199.758 76.2333 204.758 80.4333 208.491 85.5V69.7H236.691V180.5H208.491V164.3C204.891 169.5 199.891 173.833 193.491 177.3C187.224 180.633 179.958 182.3 171.691 182.3C162.358 182.3 153.824 179.9 146.091 175.1C138.491 170.3 132.424 163.567 127.891 154.9C123.491 146.1 121.291 136.033 121.291 124.7ZM208.491 125.1C208.491 118.3 207.158 112.5 204.491 107.7C201.825 102.767 198.224 99.0333 193.691 96.5C189.158 93.8333 184.291 92.5 179.091 92.5C173.891 92.5 169.091 93.7667 164.691 96.3C160.291 98.8333 156.691 102.567 153.891 107.5C151.224 112.3 149.891 118.033 149.891 124.7C149.891 131.367 151.224 137.233 153.891 142.3C156.691 147.233 160.291 151.033 164.691 153.7C169.224 156.367 174.024 157.7 179.091 157.7C184.291 157.7 189.158 156.433 193.691 153.9C198.224 151.233 201.825 147.5 204.491 142.7C207.158 137.767 208.491 131.9 208.491 125.1ZM280.238 56.5C275.305 56.5 271.171 54.9667 267.838 51.9C264.638 48.7 263.038 44.7667 263.038 40.1C263.038 35.4333 264.638 31.5667 267.838 28.5C271.171 25.3 275.305 23.7 280.238 23.7C285.171 23.7 289.238 25.3 292.438 28.5C295.771 31.5667 297.438 35.4333 297.438 40.1C297.438 44.7667 295.771 48.7 292.438 51.9C289.238 54.9667 285.171 56.5 280.238 56.5ZM294.038 69.7V180.5H266.038V69.7H294.038Z" fill="#F6F3FF"/>
</svg>





