<svg width="439" height="121" viewBox="0 0 439 121" fill="none" xmlns="http://www.w3.org/2000/svg">
<path d="M0.690796 118.5L38.0173 5H426.681L389.354 118.5H0.690796Z" fill="#170F49" stroke="#170F49"/>
<path d="M61.3208 68.31C61.3208 62.15 62.5308 56.6867 64.9508 51.92C67.4441 47.1533 70.7808 43.4867 74.9608 40.92C79.2141 38.3533 83.9441 37.07 89.1508 37.07C93.6975 37.07 97.6575 37.9867 101.031 39.82C104.477 41.6533 107.227 43.9633 109.281 46.75V38.06H124.791V99H109.281V90.09C107.301 92.95 104.551 95.3333 101.031 97.24C97.5841 99.0733 93.5875 99.99 89.0408 99.99C83.9075 99.99 79.2141 98.67 74.9608 96.03C70.7808 93.39 67.4441 89.6867 64.9508 84.92C62.5308 80.08 61.3208 74.5433 61.3208 68.31ZM109.281 68.53C109.281 64.79 108.547 61.6 107.081 58.96C105.614 56.2467 103.634 54.1933 101.141 52.8C98.6475 51.3333 95.9708 50.6 93.1108 50.6C90.2508 50.6 87.6108 51.2967 85.1908 52.69C82.7708 54.0833 80.7908 56.1367 79.2508 58.85C77.7841 61.49 77.0508 64.6433 77.0508 68.31C77.0508 71.9767 77.7841 75.2033 79.2508 77.99C80.7908 80.7033 82.7708 82.7933 85.1908 84.26C87.6841 85.7267 90.3241 86.46 93.1108 86.46C95.9708 86.46 98.6475 85.7633 101.141 84.37C103.634 82.9033 105.614 80.85 107.081 78.21C108.547 75.4967 109.281 72.27 109.281 68.53Z" fill="#F34822"/>
<path d="M149.642 30.8C146.928 30.8 144.655 29.9567 142.822 28.27C141.062 26.51 140.182 24.3467 140.182 21.78C140.182 19.2133 141.062 17.0867 142.822 15.4C144.655 13.64 146.928 12.76 149.642 12.76C152.355 12.76 154.592 13.64 156.352 15.4C158.185 17.0867 159.102 19.2133 159.102 21.78C159.102 24.3467 158.185 26.51 156.352 28.27C154.592 29.9567 152.355 30.8 149.642 30.8ZM157.232 38.06V99H141.832V38.06H157.232Z" fill="#F29F05"/>
<path d="M170.487 68.31C170.487 62.15 171.697 56.6867 174.117 51.92C176.61 47.1533 179.983 43.4867 184.237 40.92C188.49 38.3533 193.22 37.07 198.427 37.07C202.387 37.07 206.163 37.95 209.757 39.71C213.35 41.3967 216.21 43.67 218.337 46.53V17.6H233.957V99H218.337V89.98C216.43 92.9867 213.753 95.4067 210.307 97.24C206.86 99.0733 202.863 99.99 198.317 99.99C193.183 99.99 188.49 98.67 184.237 96.03C179.983 93.39 176.61 89.6867 174.117 84.92C171.697 80.08 170.487 74.5433 170.487 68.31ZM218.447 68.53C218.447 64.79 217.713 61.6 216.247 58.96C214.78 56.2467 212.8 54.1933 210.307 52.8C207.813 51.3333 205.137 50.6 202.277 50.6C199.417 50.6 196.777 51.2967 194.357 52.69C191.937 54.0833 189.957 56.1367 188.417 58.85C186.95 61.49 186.217 64.6433 186.217 68.31C186.217 71.9767 186.95 75.2033 188.417 77.99C189.957 80.7033 191.937 82.7933 194.357 84.26C196.85 85.7267 199.49 86.46 202.277 86.46C205.137 86.46 207.813 85.7633 210.307 84.37C212.8 82.9033 214.78 80.85 216.247 78.21C217.713 75.4967 218.447 72.27 218.447 68.53Z" fill="#2EB5E0"/>
<path d="M307.648 67.21C307.648 69.41 307.501 71.39 307.208 73.15H262.658C263.024 77.55 264.564 80.9967 267.278 83.49C269.991 85.9833 273.328 87.23 277.288 87.23C283.008 87.23 287.078 84.7733 289.498 79.86H306.108C304.348 85.7267 300.974 90.5667 295.988 94.38C291.001 98.12 284.878 99.99 277.618 99.99C271.751 99.99 266.471 98.7067 261.778 96.14C257.158 93.5 253.528 89.7967 250.888 85.03C248.321 80.2633 247.038 74.7633 247.038 68.53C247.038 62.2233 248.321 56.6867 250.888 51.92C253.454 47.1533 257.048 43.4867 261.668 40.92C266.288 38.3533 271.604 37.07 277.618 37.07C283.411 37.07 288.581 38.3167 293.128 40.81C297.748 43.3033 301.304 46.86 303.798 51.48C306.364 56.0267 307.648 61.27 307.648 67.21ZM291.698 62.81C291.624 58.85 290.194 55.6967 287.408 53.35C284.621 50.93 281.211 49.72 277.178 49.72C273.364 49.72 270.138 50.8933 267.498 53.24C264.931 55.5133 263.354 58.7033 262.768 62.81H291.698Z" fill="#8BC34A"/>
<path d="M316.928 68.31C316.928 62.15 318.138 56.6867 320.558 51.92C323.052 47.1533 326.388 43.4867 330.568 40.92C334.822 38.3533 339.552 37.07 344.758 37.07C349.305 37.07 353.265 37.9867 356.638 39.82C360.085 41.6533 362.835 43.9633 364.888 46.75V38.06H380.398V99H364.888V90.09C362.908 92.95 360.158 95.3333 356.638 97.24C353.192 99.0733 349.195 99.99 344.648 99.99C339.515 99.99 334.822 98.67 330.568 96.03C326.388 93.39 323.052 89.6867 320.558 84.92C318.138 80.08 316.928 74.5433 316.928 68.31ZM364.888 68.53C364.888 64.79 364.155 61.6 362.688 58.96C361.222 56.2467 359.242 54.1933 356.748 52.8C354.255 51.3333 351.578 50.6 348.718 50.6C345.858 50.6 343.218 51.2967 340.798 52.69C338.378 54.0833 336.398 56.1367 334.858 58.85C333.392 61.49 332.658 64.6433 332.658 68.31C332.658 71.9767 333.392 75.2033 334.858 77.99C336.398 80.7033 338.378 82.7933 340.798 84.26C343.292 85.7267 345.932 86.46 348.718 86.46C351.578 86.46 354.255 85.7633 356.748 84.37C359.242 82.9033 361.222 80.85 362.688 78.21C364.155 75.4967 364.888 72.27 364.888 68.53Z" fill="#8E44AD"/>
<path d="M56.3208 68.31C56.3208 62.15 57.5308 56.6867 59.9508 51.92C62.4441 47.1533 65.7808 43.4867 69.9608 40.92C74.2141 38.3533 78.9441 37.07 84.1508 37.07C88.6975 37.07 92.6575 37.9867 96.0308 39.82C99.4775 41.6533 102.227 43.9633 104.281 46.75V38.06H119.791V99H104.281V90.09C102.301 92.95 99.5508 95.3333 96.0308 97.24C92.5841 99.0733 88.5875 99.99 84.0408 99.99C78.9075 99.99 74.2141 98.67 69.9608 96.03C65.7808 93.39 62.4441 89.6867 59.9508 84.92C57.5308 80.08 56.3208 74.5433 56.3208 68.31ZM104.281 68.53C104.281 64.79 103.547 61.6 102.081 58.96C100.614 56.2467 98.6341 54.1933 96.1408 52.8C93.6475 51.3333 90.9708 50.6 88.1108 50.6C85.2508 50.6 82.6108 51.2967 80.1908 52.69C77.7708 54.0833 75.7908 56.1367 74.2508 58.85C72.7841 61.49 72.0508 64.6433 72.0508 68.31C72.0508 71.9767 72.7841 75.2033 74.2508 77.99C75.7908 80.7033 77.7708 82.7933 80.1908 84.26C82.6841 85.7267 85.3241 86.46 88.1108 86.46C90.9708 86.46 93.6475 85.7633 96.1408 84.37C98.6341 82.9033 100.614 80.85 102.081 78.21C103.547 75.4967 104.281 72.27 104.281 68.53ZM144.642 30.8C141.928 30.8 139.655 29.9567 137.822 28.27C136.062 26.51 135.182 24.3467 135.182 21.78C135.182 19.2133 136.062 17.0867 137.822 15.4C139.655 13.64 141.928 12.76 144.642 12.76C147.355 12.76 149.592 13.64 151.352 15.4C153.185 17.0867 154.102 19.2133 154.102 21.78C154.102 24.3467 153.185 26.51 151.352 28.27C149.592 29.9567 147.355 30.8 144.642 30.8ZM152.232 38.06V99H136.832V38.06H152.232ZM165.487 68.31C165.487 62.15 166.697 56.6867 169.117 51.92C171.61 47.1533 174.983 43.4867 179.237 40.92C183.49 38.3533 188.22 37.07 193.427 37.07C197.387 37.07 201.163 37.95 204.757 39.71C208.35 41.3967 211.21 43.67 213.337 46.53V17.6H228.957V99H213.337V89.98C211.43 92.9867 208.753 95.4067 205.307 97.24C201.86 99.0733 197.863 99.99 193.317 99.99C188.183 99.99 183.49 98.67 179.237 96.03C174.983 93.39 171.61 89.6867 169.117 84.92C166.697 80.08 165.487 74.5433 165.487 68.31ZM213.447 68.53C213.447 64.79 212.713 61.6 211.247 58.96C209.78 56.2467 207.8 54.1933 205.307 52.8C202.813 51.3333 200.137 50.6 197.277 50.6C194.417 50.6 191.777 51.2967 189.357 52.69C186.937 54.0833 184.957 56.1367 183.417 58.85C181.95 61.49 181.217 64.6433 181.217 68.31C181.217 71.9767 181.95 75.2033 183.417 77.99C184.957 80.7033 186.937 82.7933 189.357 84.26C191.85 85.7267 194.49 86.46 197.277 86.46C200.137 86.46 202.813 85.7633 205.307 84.37C207.8 82.9033 209.78 80.85 211.247 78.21C212.713 75.4967 213.447 72.27 213.447 68.53ZM302.648 67.21C302.648 69.41 302.501 71.39 302.208 73.15H257.658C258.024 77.55 259.564 80.9967 262.278 83.49C264.991 85.9833 268.328 87.23 272.288 87.23C278.008 87.23 282.078 84.7733 284.498 79.86H301.108C299.348 85.7267 295.974 90.5667 290.988 94.38C286.001 98.12 279.878 99.99 272.618 99.99C266.751 99.99 261.471 98.7067 256.778 96.14C252.158 93.5 248.528 89.7967 245.888 85.03C243.321 80.2633 242.038 74.7633 242.038 68.53C242.038 62.2233 243.321 56.6867 245.888 51.92C248.454 47.1533 252.048 43.4867 256.668 40.92C261.288 38.3533 266.604 37.07 272.618 37.07C278.411 37.07 283.581 38.3167 288.128 40.81C292.748 43.3033 296.304 46.86 298.798 51.48C301.364 56.0267 302.648 61.27 302.648 67.21ZM286.698 62.81C286.624 58.85 285.194 55.6967 282.408 53.35C279.621 50.93 276.211 49.72 272.178 49.72C268.364 49.72 265.138 50.8933 262.498 53.24C259.931 55.5133 258.354 58.7033 257.768 62.81H286.698ZM311.928 68.31C311.928 62.15 313.138 56.6867 315.558 51.92C318.052 47.1533 321.388 43.4867 325.568 40.92C329.822 38.3533 334.552 37.07 339.758 37.07C344.305 37.07 348.265 37.9867 351.638 39.82C355.085 41.6533 357.835 43.9633 359.888 46.75V38.06H375.398V99H359.888V90.09C357.908 92.95 355.158 95.3333 351.638 97.24C348.192 99.0733 344.195 99.99 339.648 99.99C334.515 99.99 329.822 98.67 325.568 96.03C321.388 93.39 318.052 89.6867 315.558 84.92C313.138 80.08 311.928 74.5433 311.928 68.31ZM359.888 68.53C359.888 64.79 359.155 61.6 357.688 58.96C356.222 56.2467 354.242 54.1933 351.748 52.8C349.255 51.3333 346.578 50.6 343.718 50.6C340.858 50.6 338.218 51.2967 335.798 52.69C333.378 54.0833 331.398 56.1367 329.858 58.85C328.392 61.49 327.658 64.6433 327.658 68.31C327.658 71.9767 328.392 75.2033 329.858 77.99C331.398 80.7033 333.378 82.7933 335.798 84.26C338.292 85.7267 340.932 86.46 343.718 86.46C346.578 86.46 349.255 85.7633 351.748 84.37C354.242 82.9033 356.222 80.85 357.688 78.21C359.155 75.4967 359.888 72.27 359.888 68.53Z" fill="#F6F3FF"/>
</svg>
