<svg width="325" height="88" viewBox="0 0 325 88" fill="none" xmlns="http://www.w3.org/2000/svg">
<path d="M5 55.55C5 49.39 6.21 43.9267 8.63 39.16C11.1233 34.3933 14.46 30.7267 18.64 28.16C22.8933 25.5933 27.6233 24.31 32.83 24.31C37.3767 24.31 41.3367 25.2267 44.71 27.06C48.1567 28.8933 50.9067 31.2033 52.96 33.99V25.3H68.47V86.24H52.96V77.33C50.98 80.19 48.23 82.5733 44.71 84.48C41.2633 86.3133 37.2667 87.23 32.72 87.23C27.5867 87.23 22.8933 85.91 18.64 83.27C14.46 80.63 11.1233 76.9267 8.63 72.16C6.21 67.32 5 61.7833 5 55.55ZM52.96 55.77C52.96 52.03 52.2267 48.84 50.76 46.2C49.2933 43.4867 47.3133 41.4333 44.82 40.04C42.3267 38.5733 39.65 37.84 36.79 37.84C33.93 37.84 31.29 38.5367 28.87 39.93C26.45 41.3233 24.47 43.3767 22.93 46.09C21.4633 48.73 20.73 51.8833 20.73 55.55C20.73 59.2167 21.4633 62.4433 22.93 65.23C24.47 67.9433 26.45 70.0333 28.87 71.5C31.3633 72.9667 34.0033 73.7 36.79 73.7C39.65 73.7 42.3267 73.0033 44.82 71.61C47.3133 70.1433 49.2933 68.09 50.76 65.45C52.2267 62.7367 52.96 59.51 52.96 55.77Z" fill="#F34822"/>
<path d="M93.3208 18.04C90.6074 18.04 88.3341 17.1967 86.5008 15.51C84.7408 13.75 83.8608 11.5867 83.8608 9.02C83.8608 6.45333 84.7408 4.32667 86.5008 2.64C88.3341 0.88 90.6074 0 93.3208 0C96.0341 0 98.2708 0.88 100.031 2.64C101.864 4.32667 102.781 6.45333 102.781 9.02C102.781 11.5867 101.864 13.75 100.031 15.51C98.2708 17.1967 96.0341 18.04 93.3208 18.04ZM100.911 25.3V86.24H85.5108V25.3H100.911Z" fill="#F29F05"/>
<path d="M114.166 55.55C114.166 49.39 115.376 43.9267 117.796 39.16C120.289 34.3933 123.663 30.7267 127.916 28.16C132.169 25.5933 136.899 24.31 142.106 24.31C146.066 24.31 149.843 25.19 153.436 26.95C157.029 28.6367 159.889 30.91 162.016 33.77V4.84H177.636V86.24H162.016V77.22C160.109 80.2267 157.433 82.6467 153.986 84.48C150.539 86.3133 146.543 87.23 141.996 87.23C136.863 87.23 132.169 85.91 127.916 83.27C123.663 80.63 120.289 76.9267 117.796 72.16C115.376 67.32 114.166 61.7833 114.166 55.55ZM162.126 55.77C162.126 52.03 161.393 48.84 159.926 46.2C158.459 43.4867 156.479 41.4333 153.986 40.04C151.493 38.5733 148.816 37.84 145.956 37.84C143.096 37.84 140.456 38.5367 138.036 39.93C135.616 41.3233 133.636 43.3767 132.096 46.09C130.629 48.73 129.896 51.8833 129.896 55.55C129.896 59.2167 130.629 62.4433 132.096 65.23C133.636 67.9433 135.616 70.0333 138.036 71.5C140.529 72.9667 143.169 73.7 145.956 73.7C148.816 73.7 151.493 73.0033 153.986 71.61C156.479 70.1433 158.459 68.09 159.926 65.45C161.393 62.7367 162.126 59.51 162.126 55.77Z" fill="#2EB5E0"/>
<path d="M251.327 54.45C251.327 56.65 251.18 58.63 250.887 60.39H206.337C206.703 64.79 208.243 68.2367 210.957 70.73C213.67 73.2233 217.007 74.47 220.967 74.47C226.687 74.47 230.757 72.0133 233.177 67.1H249.787C248.027 72.9667 244.653 77.8067 239.667 81.62C234.68 85.36 228.557 87.23 221.297 87.23C215.43 87.23 210.15 85.9467 205.457 83.38C200.837 80.74 197.207 77.0367 194.567 72.27C192 67.5033 190.717 62.0033 190.717 55.77C190.717 49.4633 192 43.9267 194.567 39.16C197.133 34.3933 200.727 30.7267 205.347 28.16C209.967 25.5933 215.283 24.31 221.297 24.31C227.09 24.31 232.26 25.5567 236.807 28.05C241.427 30.5433 244.983 34.1 247.477 38.72C250.043 43.2667 251.327 48.51 251.327 54.45ZM235.377 50.05C235.303 46.09 233.873 42.9367 231.087 40.59C228.3 38.17 224.89 36.96 220.857 36.96C217.043 36.96 213.817 38.1333 211.177 40.48C208.61 42.7533 207.033 45.9433 206.447 50.05H235.377Z" fill="#8BC34A"/>
<path d="M260.607 55.55C260.607 49.39 261.817 43.9267 264.237 39.16C266.731 34.3933 270.067 30.7267 274.247 28.16C278.501 25.5933 283.231 24.31 288.437 24.31C292.984 24.31 296.944 25.2267 300.317 27.06C303.764 28.8933 306.514 31.2033 308.567 33.99V25.3H324.077V86.24H308.567V77.33C306.587 80.19 303.837 82.5733 300.317 84.48C296.871 86.3133 292.874 87.23 288.327 87.23C283.194 87.23 278.501 85.91 274.247 83.27C270.067 80.63 266.731 76.9267 264.237 72.16C261.817 67.32 260.607 61.7833 260.607 55.55ZM308.567 55.77C308.567 52.03 307.834 48.84 306.367 46.2C304.901 43.4867 302.921 41.4333 300.427 40.04C297.934 38.5733 295.257 37.84 292.397 37.84C289.537 37.84 286.897 38.5367 284.477 39.93C282.057 41.3233 280.077 43.3767 278.537 46.09C277.071 48.73 276.337 51.8833 276.337 55.55C276.337 59.2167 277.071 62.4433 278.537 65.23C280.077 67.9433 282.057 70.0333 284.477 71.5C286.971 72.9667 289.611 73.7 292.397 73.7C295.257 73.7 297.934 73.0033 300.427 71.61C302.921 70.1433 304.901 68.09 306.367 65.45C307.834 62.7367 308.567 59.51 308.567 55.77Z" fill="#8E44AD"/>
<path d="M0 55.55C0 49.39 1.21 43.9267 3.63 39.16C6.12333 34.3933 9.46 30.7267 13.64 28.16C17.8933 25.5933 22.6233 24.31 27.83 24.31C32.3767 24.31 36.3367 25.2267 39.71 27.06C43.1567 28.8933 45.9067 31.2033 47.96 33.99V25.3H63.47V86.24H47.96V77.33C45.98 80.19 43.23 82.5733 39.71 84.48C36.2633 86.3133 32.2667 87.23 27.72 87.23C22.5867 87.23 17.8933 85.91 13.64 83.27C9.46 80.63 6.12333 76.9267 3.63 72.16C1.21 67.32 0 61.7833 0 55.55ZM47.96 55.77C47.96 52.03 47.2267 48.84 45.76 46.2C44.2933 43.4867 42.3133 41.4333 39.82 40.04C37.3267 38.5733 34.65 37.84 31.79 37.84C28.93 37.84 26.29 38.5367 23.87 39.93C21.45 41.3233 19.47 43.3767 17.93 46.09C16.4633 48.73 15.73 51.8833 15.73 55.55C15.73 59.2167 16.4633 62.4433 17.93 65.23C19.47 67.9433 21.45 70.0333 23.87 71.5C26.3633 72.9667 29.0033 73.7 31.79 73.7C34.65 73.7 37.3267 73.0033 39.82 71.61C42.3133 70.1433 44.2933 68.09 45.76 65.45C47.2267 62.7367 47.96 59.51 47.96 55.77Z" fill="#F6F3FF"/>
<path d="M88.3208 18.04C85.6074 18.04 83.3341 17.1967 81.5008 15.51C79.7408 13.75 78.8608 11.5867 78.8608 9.02C78.8608 6.45333 79.7408 4.32667 81.5008 2.64C83.3341 0.88 85.6074 0 88.3208 0C91.0341 0 93.2708 0.88 95.0308 2.64C96.8641 4.32667 97.7808 6.45333 97.7808 9.02C97.7808 11.5867 96.8641 13.75 95.0308 15.51C93.2708 17.1967 91.0341 18.04 88.3208 18.04ZM95.9108 25.3V86.24H80.5108V25.3H95.9108Z" fill="#F6F3FF"/>
<path d="M109.166 55.55C109.166 49.39 110.376 43.9267 112.796 39.16C115.289 34.3933 118.663 30.7267 122.916 28.16C127.169 25.5933 131.899 24.31 137.106 24.31C141.066 24.31 144.843 25.19 148.436 26.95C152.029 28.6367 154.889 30.91 157.016 33.77V4.84H172.636V86.24H157.016V77.22C155.109 80.2267 152.433 82.6467 148.986 84.48C145.539 86.3133 141.543 87.23 136.996 87.23C131.863 87.23 127.169 85.91 122.916 83.27C118.663 80.63 115.289 76.9267 112.796 72.16C110.376 67.32 109.166 61.7833 109.166 55.55ZM157.126 55.77C157.126 52.03 156.393 48.84 154.926 46.2C153.459 43.4867 151.479 41.4333 148.986 40.04C146.493 38.5733 143.816 37.84 140.956 37.84C138.096 37.84 135.456 38.5367 133.036 39.93C130.616 41.3233 128.636 43.3767 127.096 46.09C125.629 48.73 124.896 51.8833 124.896 55.55C124.896 59.2167 125.629 62.4433 127.096 65.23C128.636 67.9433 130.616 70.0333 133.036 71.5C135.529 72.9667 138.169 73.7 140.956 73.7C143.816 73.7 146.493 73.0033 148.986 71.61C151.479 70.1433 153.459 68.09 154.926 65.45C156.393 62.7367 157.126 59.51 157.126 55.77Z" fill="#F6F3FF"/>
<path d="M246.327 54.45C246.327 56.65 246.18 58.63 245.887 60.39H201.337C201.703 64.79 203.243 68.2367 205.957 70.73C208.67 73.2233 212.007 74.47 215.967 74.47C221.687 74.47 225.757 72.0133 228.177 67.1H244.787C243.027 72.9667 239.653 77.8067 234.667 81.62C229.68 85.36 223.557 87.23 216.297 87.23C210.43 87.23 205.15 85.9467 200.457 83.38C195.837 80.74 192.207 77.0367 189.567 72.27C187 67.5033 185.717 62.0033 185.717 55.77C185.717 49.4633 187 43.9267 189.567 39.16C192.133 34.3933 195.727 30.7267 200.347 28.16C204.967 25.5933 210.283 24.31 216.297 24.31C222.09 24.31 227.26 25.5567 231.807 28.05C236.427 30.5433 239.983 34.1 242.477 38.72C245.043 43.2667 246.327 48.51 246.327 54.45ZM230.377 50.05C230.303 46.09 228.873 42.9367 226.087 40.59C223.3 38.17 219.89 36.96 215.857 36.96C212.043 36.96 208.817 38.1333 206.177 40.48C203.61 42.7533 202.033 45.9433 201.447 50.05H230.377Z" fill="#F6F3FF"/>
<path d="M255.607 55.55C255.607 49.39 256.817 43.9267 259.237 39.16C261.731 34.3933 265.067 30.7267 269.247 28.16C273.501 25.5933 278.231 24.31 283.437 24.31C287.984 24.31 291.944 25.2267 295.317 27.06C298.764 28.8933 301.514 31.2033 303.567 33.99V25.3H319.077V86.24H303.567V77.33C301.587 80.19 298.837 82.5733 295.317 84.48C291.871 86.3133 287.874 87.23 283.327 87.23C278.194 87.23 273.501 85.91 269.247 83.27C265.067 80.63 261.731 76.9267 259.237 72.16C256.817 67.32 255.607 61.7833 255.607 55.55ZM303.567 55.77C303.567 52.03 302.834 48.84 301.367 46.2C299.901 43.4867 297.921 41.4333 295.427 40.04C292.934 38.5733 290.257 37.84 287.397 37.84C284.537 37.84 281.897 38.5367 279.477 39.93C277.057 41.3233 275.077 43.3767 273.537 46.09C272.071 48.73 271.337 51.8833 271.337 55.55C271.337 59.2167 272.071 62.4433 273.537 65.23C275.077 67.9433 277.057 70.0333 279.477 71.5C281.971 72.9667 284.611 73.7 287.397 73.7C290.257 73.7 292.934 73.0033 295.427 71.61C297.921 70.1433 299.901 68.09 301.367 65.45C302.834 62.7367 303.567 59.51 303.567 55.77Z" fill="#F6F3FF"/>
</svg>
